<svg width="1362" height="1396" viewBox="0 0 1362 1396" fill="none" xmlns="http://www.w3.org/2000/svg">
<path d="M680.94 693.963C692.508 693.963 701.917 703.372 701.917 714.94C701.917 726.508 692.508 735.917 680.94 735.917C669.372 735.917 659.963 726.508 659.963 714.94C659.963 703.372 669.372 693.963 680.94 693.963ZM680.94 685.581C664.72 685.581 651.581 698.72 651.581 714.94C651.581 731.16 664.72 744.299 680.94 744.299C697.16 744.299 710.299 731.16 710.299 714.94C710.299 698.72 697.139 685.581 680.94 685.581Z" fill="#FF009D"/>
<path d="M680.94 672.944C704.096 672.944 722.936 691.784 722.936 714.94C722.936 738.096 704.096 756.936 680.94 756.936C657.784 756.936 638.944 738.096 638.944 714.94C638.944 691.784 657.784 672.944 680.94 672.944ZM680.94 664.562C653.111 664.562 630.562 687.111 630.562 714.94C630.562 742.769 653.111 765.318 680.94 765.318C708.769 765.318 731.318 742.769 731.318 714.94C731.297 687.111 708.748 664.562 680.94 664.562Z" fill="#FF009D"/>
<path d="M680.94 651.926C715.685 651.926 743.954 680.195 743.954 714.94C743.954 749.685 715.685 777.933 680.94 777.933C646.195 777.933 617.926 749.664 617.926 714.919C617.926 680.174 646.195 651.926 680.94 651.926ZM680.94 643.543C641.501 643.543 609.543 675.501 609.543 714.94C609.543 754.379 641.501 786.337 680.94 786.337C720.379 786.337 752.337 754.379 752.337 714.94C752.316 675.501 720.358 643.543 680.94 643.543Z" fill="#FF009D"/>
<path d="M680.94 630.907C727.273 630.907 764.973 668.607 764.973 714.94C764.973 761.273 727.273 798.973 680.94 798.973C634.607 798.973 596.907 761.273 596.907 714.94C596.907 668.586 634.586 630.907 680.94 630.907ZM680.94 622.525C629.912 622.525 588.525 663.891 588.525 714.94C588.525 765.968 629.891 807.355 680.94 807.355C731.988 807.355 773.355 765.988 773.355 714.94C773.334 663.891 731.967 622.525 680.94 622.525Z" fill="#FF009D"/>
<path d="M680.94 609.888C738.862 609.888 785.992 657.018 785.992 714.94C785.992 772.862 738.862 819.992 680.94 819.992C623.018 819.992 575.888 772.862 575.888 714.94C575.888 657.018 622.997 609.888 680.94 609.888ZM680.94 601.506C618.303 601.506 567.506 652.282 567.506 714.94C567.506 777.577 618.282 828.374 680.94 828.374C743.598 828.374 794.374 777.598 794.374 714.94C794.353 652.282 743.577 601.506 680.94 601.506Z" fill="#FF009D"/>
<path d="M680.94 588.869C750.451 588.869 807.011 645.429 807.011 714.94C807.011 784.451 750.451 841.011 680.94 841.011C611.429 841.011 554.87 784.451 554.87 714.94C554.87 645.408 611.408 588.869 680.94 588.869ZM680.94 580.487C606.693 580.487 546.487 640.672 546.487 714.94C546.487 789.187 606.672 849.393 680.94 849.393C755.187 849.393 815.393 789.208 815.393 714.94C815.372 640.672 755.187 580.487 680.94 580.487Z" fill="#FF009D"/>
<path d="M680.94 567.851C762.039 567.851 828.029 633.841 828.029 714.94C828.029 796.039 762.039 862.029 680.94 862.029C599.841 862.029 533.851 796.039 533.851 714.94C533.851 633.841 599.82 567.851 680.94 567.851ZM680.94 559.468C595.084 559.468 525.468 629.084 525.468 714.94C525.468 800.796 595.084 870.412 680.94 870.412C766.796 870.412 836.412 800.796 836.412 714.94C836.391 629.063 766.796 559.468 680.94 559.468Z" fill="#FF009D"/>
<path d="M680.94 546.832C773.628 546.832 849.048 622.252 849.048 714.94C849.048 807.628 773.628 883.048 680.94 883.048C588.252 883.048 512.832 807.628 512.832 714.94C512.832 622.231 588.231 546.832 680.94 546.832ZM680.94 538.45C583.474 538.45 504.45 617.474 504.45 714.94C504.45 812.406 583.474 891.43 680.94 891.43C778.406 891.43 857.43 812.406 857.43 714.94C857.409 617.453 778.406 538.45 680.94 538.45Z" fill="#FF009D"/>
<path d="M680.94 525.813C785.216 525.813 870.067 610.664 870.067 714.94C870.067 819.216 785.216 904.067 680.94 904.067C576.663 904.067 491.813 819.216 491.813 714.94C491.813 610.664 576.643 525.813 680.94 525.813ZM680.94 517.431C571.865 517.431 483.431 605.865 483.431 714.94C483.431 824.015 571.865 912.449 680.94 912.449C790.015 912.449 878.449 824.015 878.449 714.94C878.428 605.844 790.015 517.431 680.94 517.431Z" fill="#FF009D"/>
<path d="M680.94 504.795C796.805 504.795 891.086 599.054 891.086 714.94C891.086 830.805 796.826 925.086 680.94 925.086C565.054 925.086 470.795 830.826 470.795 714.94C470.795 599.054 565.054 504.795 680.94 504.795ZM680.94 496.412C560.255 496.412 462.412 594.255 462.412 714.94C462.412 835.625 560.255 933.468 680.94 933.468C801.625 933.468 899.468 835.625 899.468 714.94C899.447 594.234 801.625 496.412 680.94 496.412Z" fill="#FF009D"/>
<path d="M680.94 483.776C742.676 483.776 800.724 507.812 844.396 551.484C888.047 595.135 912.104 653.204 912.104 714.94C912.104 776.676 888.068 834.724 844.396 878.396C800.745 922.047 742.676 946.104 680.94 946.104C619.204 946.104 561.156 922.068 517.484 878.396C473.812 834.724 449.776 776.676 449.776 714.94C449.776 653.204 473.812 595.156 517.484 551.484C561.135 507.812 619.183 483.776 680.94 483.776ZM680.94 475.393C548.646 475.393 441.393 582.646 441.393 714.94C441.393 847.234 548.646 954.487 680.94 954.487C813.234 954.487 920.487 847.234 920.487 714.94C920.487 582.646 813.234 475.393 680.94 475.393Z" fill="#FF009D"/>
<path d="M680.94 462.757C748.292 462.757 811.621 488.994 859.253 536.627C906.886 584.259 933.123 647.588 933.123 714.94C933.123 782.292 906.886 845.621 859.253 893.254C811.621 940.886 748.292 967.123 680.94 967.123C613.588 967.123 550.259 940.886 502.626 893.254C454.994 845.621 428.757 782.292 428.757 714.94C428.757 647.588 454.994 584.259 502.626 536.627C550.238 488.973 613.567 462.757 680.94 462.757ZM680.94 454.375C537.036 454.375 420.375 571.036 420.375 714.94C420.375 858.844 537.036 975.505 680.94 975.505C824.844 975.505 941.505 858.844 941.505 714.94C941.505 571.036 824.823 454.375 680.94 454.375Z" fill="#FF009D"/>
<path d="M680.94 441.738C753.908 441.738 822.518 470.155 874.111 521.748C925.705 573.341 954.121 641.951 954.121 714.919C954.121 787.887 925.705 856.497 874.111 908.09C822.518 959.684 753.908 988.1 680.94 988.1C607.972 988.1 539.362 959.684 487.769 908.09C436.175 856.497 407.759 787.887 407.759 714.919C407.759 641.951 436.175 573.341 487.769 521.748C539.341 470.155 607.951 441.738 680.94 441.738ZM680.94 433.356C525.427 433.356 399.356 559.427 399.356 714.94C399.356 870.454 525.427 996.503 680.94 996.503C836.454 996.503 962.503 870.433 962.503 714.94C962.503 559.447 836.433 433.356 680.94 433.356Z" fill="#FF009D"/>
<path d="M680.94 420.72C759.524 420.72 833.415 451.315 888.99 506.89C944.565 562.465 975.16 636.335 975.16 714.94C975.16 793.524 944.565 867.415 888.99 922.99C833.415 978.565 759.545 1009.16 680.94 1009.16C602.335 1009.16 528.465 978.565 472.89 922.99C417.315 867.415 386.72 793.545 386.72 714.94C386.72 636.355 417.315 562.465 472.89 506.89C528.465 451.315 602.335 420.72 680.94 420.72ZM680.94 412.337C513.817 412.337 378.337 547.817 378.337 714.94C378.337 882.063 513.817 1017.54 680.94 1017.54C848.063 1017.54 983.543 882.063 983.543 714.94C983.543 547.817 848.042 412.337 680.94 412.337Z" fill="#FF009D"/>
<path d="M680.94 399.701C765.141 399.701 844.312 432.497 903.848 492.032C963.383 551.568 996.179 630.739 996.179 714.94C996.179 799.141 963.383 878.312 903.848 937.848C844.312 997.383 765.141 1030.18 680.94 1030.18C596.739 1030.18 517.568 997.383 458.032 937.848C398.497 878.312 365.701 799.141 365.701 714.94C365.701 630.739 398.497 551.568 458.032 492.032C517.568 432.497 596.718 399.701 680.94 399.701ZM680.94 391.319C502.207 391.319 357.319 536.207 357.319 714.94C357.319 893.673 502.207 1038.56 680.94 1038.56C859.673 1038.56 1004.56 893.673 1004.56 714.94C1004.56 536.207 859.652 391.319 680.94 391.319Z" fill="#FF009D"/>
<path d="M680.94 378.682C770.757 378.682 855.188 413.657 918.705 477.175C982.222 540.692 1017.2 625.123 1017.2 714.94C1017.2 804.757 982.222 889.188 918.705 952.705C855.188 1016.22 770.757 1051.2 680.94 1051.2C591.123 1051.2 506.692 1016.22 443.175 952.705C379.657 889.188 344.682 804.757 344.682 714.94C344.682 625.123 379.657 540.692 443.175 477.175C506.671 413.657 591.123 378.682 680.94 378.682ZM680.94 370.3C490.598 370.3 336.3 524.598 336.3 714.94C336.3 905.282 490.598 1059.58 680.94 1059.58C871.282 1059.58 1025.58 905.282 1025.58 714.94C1025.58 524.598 871.261 370.3 680.94 370.3Z" fill="#FF009D"/>
<path d="M680.94 357.663C776.373 357.663 866.085 394.818 933.563 462.296C1001.04 529.774 1038.2 619.486 1038.2 714.919C1038.2 810.352 1001.04 900.064 933.563 967.542C866.085 1035.02 776.373 1072.17 680.94 1072.17C585.507 1072.17 495.795 1035.02 428.317 967.542C360.839 900.064 323.684 810.352 323.684 714.919C323.684 619.486 360.839 529.774 428.317 462.296C495.774 394.818 585.507 357.663 680.94 357.663ZM680.94 349.281C478.988 349.281 315.281 512.988 315.281 714.94C315.281 916.892 478.988 1080.6 680.94 1080.6C882.892 1080.6 1046.6 916.892 1046.6 714.94C1046.6 512.988 882.871 349.281 680.94 349.281Z" fill="#FF009D"/>
<path d="M680.94 336.645C732.009 336.645 781.549 346.641 828.176 366.36C873.231 385.409 913.676 412.694 948.421 447.438C983.165 482.183 1010.45 522.649 1029.5 567.683C1049.22 614.31 1059.21 663.85 1059.21 714.919C1059.21 765.989 1049.22 815.528 1029.5 862.155C1010.45 907.21 983.165 947.655 948.421 982.4C913.676 1017.14 873.21 1044.43 828.176 1063.48C781.549 1083.2 732.009 1093.19 680.94 1093.19C629.871 1093.19 580.331 1083.2 533.704 1063.48C488.649 1044.43 448.204 1017.14 413.459 982.4C378.714 947.655 351.43 907.189 332.381 862.155C312.662 815.528 302.666 765.989 302.666 714.919C302.666 663.85 312.662 614.31 332.381 567.683C351.43 522.628 378.714 482.183 413.459 447.438C448.204 412.694 488.67 385.409 533.704 366.36C580.31 346.641 629.85 336.645 680.94 336.645ZM680.94 328.262C467.379 328.262 294.262 501.379 294.262 714.94C294.262 928.501 467.379 1101.62 680.94 1101.62C894.501 1101.62 1067.62 928.501 1067.62 714.94C1067.62 501.379 894.48 328.262 680.94 328.262Z" fill="#FF009D"/>
<path d="M680.94 315.626C734.859 315.626 787.144 326.188 836.37 346.997C883.919 367.115 926.627 395.908 963.299 432.581C999.972 469.253 1028.77 511.962 1048.88 559.51C1069.69 608.736 1080.25 661.021 1080.25 714.94C1080.25 768.859 1069.69 821.144 1048.88 870.37C1028.77 917.919 999.972 960.627 963.299 997.299C926.627 1033.97 883.919 1062.77 836.37 1082.88C787.144 1103.69 734.859 1114.25 680.94 1114.25C627.021 1114.25 574.736 1103.69 525.51 1082.88C477.962 1062.77 435.253 1033.97 398.581 997.299C361.908 960.627 333.115 917.919 312.997 870.37C292.167 821.144 281.626 768.859 281.626 714.94C281.626 661.021 292.188 608.736 312.997 559.51C333.115 511.962 361.908 469.253 398.581 432.581C435.253 395.908 477.962 367.115 525.51 346.997C574.736 326.188 627.021 315.626 680.94 315.626ZM680.94 307.244C455.769 307.244 273.244 489.769 273.244 714.94C273.244 940.111 455.769 1122.64 680.94 1122.64C906.111 1122.64 1088.64 940.111 1088.64 714.94C1088.64 489.769 906.09 307.244 680.94 307.244Z" fill="#FF009D"/>
<path d="M680.94 294.607C737.688 294.607 792.74 305.714 844.543 327.634C894.585 348.799 939.535 379.101 978.157 417.723C1016.76 456.324 1047.06 501.274 1068.25 551.338C1090.17 603.161 1101.27 658.192 1101.27 714.94C1101.27 771.689 1090.17 826.74 1068.25 878.543C1047.08 928.585 1016.78 973.535 978.157 1012.16C939.556 1050.76 894.606 1081.06 844.543 1102.25C792.719 1124.17 737.688 1135.27 680.94 1135.27C624.191 1135.27 569.14 1124.17 517.337 1102.25C467.295 1081.08 422.345 1050.76 383.723 1012.16C345.122 973.556 314.82 928.606 293.634 878.543C271.714 826.719 260.607 771.689 260.607 714.94C260.607 658.192 271.714 603.14 293.634 551.338C314.799 501.295 345.101 456.345 383.723 417.723C422.324 379.122 467.274 348.82 517.337 327.634C569.14 305.714 624.191 294.607 680.94 294.607ZM680.94 286.225C444.181 286.225 252.225 478.16 252.225 714.94C252.225 951.72 444.16 1143.66 680.94 1143.66C917.72 1143.66 1109.66 951.72 1109.66 714.94C1109.66 478.16 917.699 286.225 680.94 286.225Z" fill="#FF009D"/>
<path d="M680.94 273.588C740.518 273.588 798.314 285.261 852.736 308.27C905.294 330.505 952.486 362.316 993.015 402.865C1033.54 443.394 1065.38 490.607 1087.61 543.144C1110.62 597.545 1122.29 655.341 1122.29 714.94C1122.29 774.538 1110.62 832.314 1087.61 886.736C1065.38 939.294 1033.56 986.486 993.015 1027.01C952.486 1067.54 905.273 1099.38 852.736 1121.61C798.335 1144.62 740.538 1156.29 680.94 1156.29C621.341 1156.29 563.566 1144.62 509.144 1121.61C456.586 1099.38 409.394 1067.56 368.865 1027.01C328.337 986.486 296.505 939.273 274.27 886.736C251.261 832.335 239.588 774.538 239.588 714.94C239.588 655.341 251.261 597.566 274.27 543.144C296.505 490.586 328.316 443.394 368.865 402.865C409.394 362.337 456.607 330.505 509.144 308.27C563.545 285.261 621.341 273.588 680.94 273.588ZM680.94 265.206C432.571 265.206 231.206 466.55 231.206 714.94C231.206 963.33 432.55 1164.67 680.94 1164.67C929.309 1164.67 1130.67 963.33 1130.67 714.94C1130.67 466.55 929.309 265.206 680.94 265.206Z" fill="#FF009D"/>
<path d="M680.94 252.57C743.367 252.57 803.909 264.787 860.909 288.907C915.96 312.189 965.416 345.53 1007.87 388.007C1050.33 430.464 1083.67 479.92 1106.97 534.971C1131.07 591.971 1143.31 652.512 1143.31 714.94C1143.31 777.367 1131.09 837.909 1106.97 894.909C1083.69 949.96 1050.35 999.416 1007.87 1041.87C965.395 1084.33 915.96 1117.67 860.909 1140.97C803.909 1165.07 743.367 1177.31 680.94 1177.31C618.512 1177.31 557.971 1165.09 500.971 1140.97C445.92 1117.69 396.464 1084.35 354.007 1041.87C311.551 999.395 278.21 949.96 254.907 894.909C230.808 837.909 218.57 777.367 218.57 714.94C218.57 652.512 230.787 591.971 254.907 534.971C278.189 479.92 311.53 430.464 354.007 388.007C396.464 345.551 445.92 312.21 500.971 288.907C557.95 264.787 618.512 252.57 680.94 252.57ZM680.94 244.187C420.961 244.187 210.187 454.941 210.187 714.94C210.187 974.939 420.941 1185.69 680.94 1185.69C940.939 1185.69 1151.67 974.918 1151.67 714.94C1151.67 454.961 940.919 244.187 680.94 244.187Z" fill="#FF009D"/>
<path d="M680.94 231.551C746.197 231.551 809.504 244.334 869.082 269.544C926.648 293.895 978.346 328.744 1022.73 373.15C1067.14 417.555 1101.99 469.232 1126.34 526.798C1151.55 586.397 1164.33 649.683 1164.33 714.94C1164.33 780.197 1151.55 843.504 1126.34 903.082C1101.99 960.648 1067.14 1012.35 1022.73 1056.73C978.325 1101.11 926.648 1135.99 869.082 1160.34C809.483 1185.55 746.197 1198.33 680.94 1198.33C615.683 1198.33 552.376 1185.55 492.798 1160.34C435.232 1135.99 383.534 1101.14 339.15 1056.73C294.765 1012.32 259.895 960.648 235.544 903.082C210.334 843.483 197.551 780.197 197.551 714.94C197.551 649.683 210.334 586.376 235.544 526.798C259.895 469.232 294.744 417.534 339.15 373.15C383.555 328.744 435.232 293.895 492.798 269.544C552.376 244.334 615.663 231.551 680.94 231.551ZM680.94 223.169C409.352 223.169 189.169 443.331 189.169 714.94C189.169 986.549 409.331 1206.69 680.94 1206.69C952.549 1206.69 1172.69 986.528 1172.69 714.94C1172.69 443.352 952.528 223.169 680.94 223.169Z" fill="#FF009D"/>
<path d="M680.94 210.532C749.047 210.532 815.1 223.86 877.276 250.16C937.335 275.558 991.276 311.938 1037.61 358.25C1083.94 404.584 1120.3 458.524 1145.7 518.583C1172 580.76 1185.33 646.812 1185.33 714.919C1185.33 783.026 1172 849.079 1145.7 911.255C1120.3 971.314 1083.92 1025.25 1037.61 1071.59C991.276 1117.92 937.335 1154.28 877.276 1179.68C815.1 1205.98 749.047 1219.31 680.94 1219.31C612.833 1219.31 546.781 1205.98 484.605 1179.68C424.545 1154.28 370.605 1117.9 324.271 1071.59C277.938 1025.25 241.579 971.314 216.181 911.255C189.881 849.079 176.553 783.026 176.553 714.919C176.553 646.812 189.881 580.76 216.181 518.583C241.579 458.524 277.959 404.584 324.271 358.25C370.605 311.917 424.545 275.558 484.605 250.16C546.781 223.86 612.833 210.532 680.94 210.532ZM680.94 202.15C397.742 202.15 168.15 431.721 168.15 714.94C168.15 998.159 397.721 1227.73 680.94 1227.73C964.159 1227.73 1193.73 998.159 1193.73 714.94C1193.73 431.721 964.138 202.15 680.94 202.15Z" fill="#FF009D"/>
<path d="M680.94 189.513C751.876 189.513 820.674 203.407 885.448 230.797C948.023 257.264 1004.21 295.152 1052.47 343.392C1100.73 391.654 1138.62 447.836 1165.06 510.411C1192.45 575.185 1206.35 643.983 1206.35 714.919C1206.35 785.855 1192.45 854.653 1165.06 919.427C1138.6 982.002 1100.71 1038.18 1052.47 1086.45C1004.21 1134.71 948.023 1172.6 885.448 1199.04C820.674 1226.43 751.876 1240.32 680.94 1240.32C610.004 1240.32 541.206 1226.43 476.432 1199.04C413.858 1172.57 357.675 1134.69 309.413 1086.45C261.152 1038.18 223.264 982.002 196.818 919.427C169.428 854.653 155.535 785.855 155.535 714.919C155.535 643.983 169.428 575.185 196.818 510.411C223.285 447.836 261.173 391.654 309.413 343.392C357.675 295.131 413.858 257.243 476.432 230.797C541.185 203.407 610.004 189.513 680.94 189.513ZM680.94 181.131C386.133 181.131 147.131 420.112 147.131 714.94C147.131 1009.77 386.112 1248.75 680.94 1248.75C975.768 1248.75 1214.75 1009.77 1214.75 714.94C1214.75 420.112 975.747 181.131 680.94 181.131Z" fill="#FF009D"/>
<path d="M680.94 168.495C754.705 168.495 826.269 182.933 893.642 211.433C958.71 238.948 1017.16 278.366 1067.35 328.535C1117.53 378.724 1156.93 437.17 1184.45 502.238C1212.95 569.59 1227.39 641.154 1227.39 714.94C1227.39 788.705 1212.95 860.269 1184.45 927.642C1156.93 992.71 1117.51 1051.16 1067.35 1101.35C1017.16 1151.53 958.71 1190.93 893.642 1218.45C826.29 1246.95 754.726 1261.39 680.94 1261.39C607.154 1261.39 535.611 1246.95 468.238 1218.45C403.17 1190.93 344.724 1151.51 294.535 1101.35C244.345 1051.16 204.948 992.71 177.433 927.642C148.933 860.29 134.495 788.726 134.495 714.94C134.495 641.175 148.933 569.611 177.433 502.238C204.948 437.17 244.366 378.724 294.535 328.535C344.724 278.345 403.17 238.948 468.238 211.433C535.59 182.933 607.154 168.495 680.94 168.495ZM680.94 160.112C374.523 160.112 126.112 408.523 126.112 714.94C126.112 1021.36 374.523 1269.77 680.94 1269.77C987.357 1269.77 1235.77 1021.36 1235.77 714.94C1235.77 408.523 987.357 160.112 680.94 160.112Z" fill="#FF009D"/>
<path d="M680.94 147.476C757.555 147.476 831.864 162.48 901.815 192.07C969.377 220.654 1030.06 261.56 1082.18 313.677C1134.3 365.794 1175.21 426.482 1203.79 494.044C1233.38 563.995 1248.38 638.304 1248.38 714.919C1248.38 791.534 1233.38 865.843 1203.79 935.794C1175.21 1003.36 1134.3 1064.04 1082.18 1116.16C1030.06 1168.28 969.377 1209.21 901.815 1237.77C831.864 1267.36 757.555 1282.36 680.94 1282.36C604.325 1282.36 530.016 1267.36 460.065 1237.77C392.503 1209.18 331.815 1168.28 279.698 1116.16C227.581 1064.04 186.654 1003.36 158.091 935.794C128.501 865.843 113.497 791.534 113.497 714.919C113.497 638.304 128.501 563.995 158.091 494.044C186.675 426.482 227.581 365.794 279.698 313.677C331.815 261.56 392.503 220.633 460.065 192.07C530.016 162.48 604.325 147.476 680.94 147.476ZM680.94 139.094C362.914 139.094 105.094 396.914 105.094 714.94C105.094 1032.97 362.914 1290.79 680.94 1290.79C998.966 1290.79 1256.79 1032.97 1256.79 714.94C1256.77 396.914 998.945 139.094 680.94 139.094Z" fill="#FF009D"/>
<path d="M680.94 126.457C760.384 126.457 837.459 142.007 909.988 172.707C980.064 202.338 1042.99 244.774 1097.04 298.819C1151.08 352.864 1193.52 415.795 1223.15 485.871C1253.83 558.421 1269.4 635.475 1269.4 714.919C1269.4 794.363 1253.85 871.438 1223.15 943.967C1193.52 1014.04 1151.08 1076.97 1097.04 1131.02C1042.99 1185.06 980.064 1227.5 909.988 1257.13C837.438 1287.81 760.384 1303.38 680.94 1303.38C601.496 1303.38 524.421 1287.83 451.892 1257.13C381.816 1227.5 318.885 1185.06 264.84 1131.02C210.795 1076.97 168.359 1014.04 138.728 943.967C108.048 871.417 92.4783 794.363 92.4783 714.919C92.4783 635.475 108.028 558.4 138.728 485.871C168.359 415.795 210.795 352.864 264.84 298.819C318.885 244.774 381.816 202.338 451.892 172.707C524.421 142.007 601.475 126.457 680.94 126.457ZM680.94 118.075C351.304 118.075 84.075 385.304 84.075 714.94C84.075 1044.58 351.304 1311.81 680.94 1311.81C1010.58 1311.81 1277.81 1044.58 1277.81 714.94C1277.81 385.304 1010.55 118.075 680.94 118.075Z" fill="#FF009D"/>
<path d="M680.94 105.439C763.234 105.439 843.034 121.554 918.181 153.323C990.752 184.023 1055.95 227.967 1111.92 283.941C1167.89 339.914 1211.84 405.107 1242.54 477.678C1274.33 552.804 1290.42 632.625 1290.42 714.919C1290.42 797.213 1274.31 877.013 1242.54 952.16C1211.84 1024.73 1167.89 1089.92 1111.92 1145.9C1055.95 1201.87 990.752 1245.81 918.181 1276.52C843.055 1308.31 763.234 1324.4 680.94 1324.4C598.646 1324.4 518.846 1308.28 443.699 1276.52C371.128 1245.81 305.935 1201.87 249.962 1145.9C193.989 1089.92 150.044 1024.73 119.344 952.16C87.5537 877.034 71.4596 797.213 71.4596 714.919C71.4596 632.625 87.5746 552.825 119.344 477.678C150.044 405.107 193.989 339.914 249.962 283.941C305.935 227.967 371.128 184.023 443.699 153.323C518.825 121.554 598.646 105.439 680.94 105.439ZM680.94 97.0562C339.695 97.0562 63.0563 373.695 63.0563 714.94C63.0563 1056.19 339.695 1332.8 680.94 1332.8C1022.19 1332.8 1298.82 1056.16 1298.82 714.919C1298.82 373.674 1022.16 97.0562 680.94 97.0562Z" fill="#FF009D"/>
<path d="M680.94 84.4198C766.063 84.4198 848.629 101.08 926.354 133.959C1001.44 165.708 1068.85 211.182 1126.78 269.083C1184.68 326.984 1230.15 394.42 1261.9 469.505C1294.78 547.23 1311.44 629.796 1311.44 714.919C1311.44 800.042 1294.78 882.608 1261.9 960.333C1230.15 1035.42 1184.68 1102.83 1126.78 1160.76C1068.88 1218.66 1001.44 1264.13 926.354 1295.88C848.629 1328.76 766.063 1345.42 680.94 1345.42C595.817 1345.42 513.251 1328.76 435.526 1295.88C360.441 1264.13 293.026 1218.66 235.104 1160.76C177.203 1102.85 131.729 1035.42 99.9804 960.333C67.1007 882.608 50.4408 800.042 50.4408 714.919C50.4408 629.796 67.1007 547.23 99.9804 469.505C131.729 394.42 177.203 327.005 235.104 269.083C293.005 211.182 360.441 165.708 435.526 133.959C513.23 101.08 595.817 84.4198 680.94 84.4198ZM680.94 76.0375C328.085 76.0375 42.0375 362.085 42.0375 714.94C42.0375 1067.79 328.085 1353.84 680.94 1353.84C1033.79 1353.84 1319.84 1067.79 1319.84 714.94C1319.84 362.085 1033.77 76.0375 680.94 76.0375Z" fill="#FF009D"/>
<path d="M680.94 63.4011C768.892 63.4011 854.224 80.6268 934.548 114.596C1012.13 147.413 1081.8 194.396 1141.65 254.225C1201.48 314.054 1248.47 383.732 1281.28 461.332C1315.25 541.656 1332.48 626.967 1332.48 714.94C1332.48 802.913 1315.25 888.224 1281.28 968.548C1248.47 1046.13 1201.48 1115.8 1141.65 1175.65C1081.83 1235.48 1012.15 1282.47 934.548 1315.28C854.224 1349.25 768.913 1366.48 680.94 1366.48C592.967 1366.48 507.656 1349.25 427.332 1315.28C349.753 1282.47 280.075 1235.48 220.225 1175.65C160.396 1115.83 113.413 1046.15 80.5963 968.548C46.6269 888.224 29.4011 802.913 29.4011 714.94C29.4011 626.967 46.6269 541.656 80.5963 461.332C113.413 383.753 160.396 314.075 220.225 254.225C280.054 194.396 349.733 147.413 427.332 114.596C507.656 80.6268 592.967 63.4011 680.94 63.4011ZM680.94 55.0187C316.476 55.0187 21.0188 350.476 21.0188 714.94C21.0188 1079.4 316.476 1374.86 680.94 1374.86C1045.4 1374.86 1340.86 1079.4 1340.86 714.94C1340.86 350.476 1045.38 55.0187 680.94 55.0187Z" fill="#FF009D"/>
<path d="M680.94 42.3823C771.742 42.3823 859.819 60.1529 942.721 95.233C1022.79 129.098 1094.73 177.59 1156.49 239.368C1218.27 301.145 1266.76 373.066 1300.63 453.138C1335.69 536.04 1353.48 624.117 1353.48 714.919C1353.48 805.721 1335.71 893.798 1300.63 976.7C1266.76 1056.79 1218.25 1128.71 1156.49 1190.47C1094.71 1252.25 1022.79 1300.74 942.721 1334.6C859.819 1369.66 771.742 1387.46 680.94 1387.46C590.138 1387.46 502.061 1369.69 419.159 1334.6C339.066 1300.76 267.145 1252.27 205.368 1190.49C143.59 1128.71 95.0977 1056.79 61.233 976.721C26.1529 893.798 8.38235 805.721 8.38235 714.94C8.38235 624.159 26.1529 536.061 61.233 453.159C95.0977 373.066 143.59 301.145 205.368 239.368C267.145 177.59 339.066 129.098 419.138 95.233C502.061 60.1529 590.138 42.3823 680.94 42.3823ZM680.94 34C304.866 34 0 338.866 0 714.94C0 1091.01 304.866 1395.86 680.94 1395.86C1057.01 1395.86 1361.88 1090.99 1361.88 714.94C1361.88 338.887 1056.99 34 680.94 34Z" fill="#FF009D"/>
</svg>
